<svg width="256" height="256" viewBox="0 0 256 256" xmlns="http://www.w3.org/2000/svg" role="img" aria-label="Chiral Gold theme icon">
  <defs>
    <linearGradient id="bg" x1="0" y1="0" x2="1" y2="1">
      <stop offset="0%" stop-color="#060606"/>
      <stop offset="100%" stop-color="#10100b"/>
    </linearGradient>
    <linearGradient id="gold" x1="0" y1="0" x2="1" y2="1">
      <stop offset="0%" stop-color="#8e6a13"/>
      <stop offset="55%" stop-color="#f5c73b"/>
      <stop offset="100%" stop-color="#fff0bc"/>
    </linearGradient>
    <filter id="glow" x="-50%" y="-50%" width="200%" height="200%">
      <feGaussianBlur stdDeviation="2.2" result="blur"/>
      <feMerge>
        <feMergeNode in="blur"/>
        <feMergeNode in="SourceGraphic"/>
      </feMerge>
    </filter>
  </defs>

  <rect width="256" height="256" rx="24" fill="url(#bg)"/>
  <g opacity="0.35">
    <circle cx="42" cy="58" r="1.5" fill="#f4cc66"/>
    <circle cx="78" cy="30" r="1.2" fill="#d5a536"/>
    <circle cx="206" cy="44" r="1.4" fill="#f4cc66"/>
    <circle cx="217" cy="118" r="1.1" fill="#d6a43a"/>
    <circle cx="33" cy="152" r="1.3" fill="#e0b753"/>
    <circle cx="65" cy="214" r="1.5" fill="#f7de9a"/>
    <circle cx="201" cy="208" r="1.4" fill="#edc967"/>
    <circle cx="170" cy="234" r="1.2" fill="#d9ab3f"/>
  </g>

  <g stroke="url(#gold)" stroke-linecap="round" fill="none" filter="url(#glow)">
    <path d="M96 24 C120 56, 118 96, 92 128 C66 160, 66 200, 92 232" stroke-width="4.5"/>
    <path d="M160 24 C136 56, 138 96, 164 128 C190 160, 190 200, 164 232" stroke-width="4.5"/>
    <path d="M110 24 C152 64, 152 96, 110 128 C68 160, 68 192, 110 232" stroke-width="2.6" opacity="0.8"/>
    <path d="M146 24 C104 64, 104 96, 146 128 C188 160, 188 192, 146 232" stroke-width="2.6" opacity="0.8"/>
  </g>
</svg>
